<?xml version="1.0" encoding="UTF-8" standalone="no"?>
<!-- Generator: Adobe Illustrator 19.0.0, SVG Export Plug-In . SVG Version: 6.00 Build 0)  -->

<svg
   xmlns:dc="http://purl.org/dc/elements/1.1/"
   xmlns:cc="http://creativecommons.org/ns#"
   xmlns:rdf="http://www.w3.org/1999/02/22-rdf-syntax-ns#"
   xmlns:svg="http://www.w3.org/2000/svg"
   xmlns="http://www.w3.org/2000/svg"
   xmlns:sodipodi="http://sodipodi.sourceforge.net/DTD/sodipodi-0.dtd"
   xmlns:inkscape="http://www.inkscape.org/namespaces/inkscape"
   version="1.1"
   id="Layer_1"
   x="0px"
   y="0px"
   viewBox="1663 -1572 3937 3937"
   style="enable-background:new 1663 -1572 3937 3937;"
   xml:space="preserve"
   sodipodi:docname="gear4.svg"
   inkscape:version="0.92.3 (2405546, 2018-03-11)"><metadata
   id="metadata1454"><rdf:RDF><cc:Work
       rdf:about=""><dc:format>image/svg+xml</dc:format><dc:type
         rdf:resource="http://purl.org/dc/dcmitype/StillImage" /></cc:Work></rdf:RDF></metadata><defs
   id="defs1452" /><sodipodi:namedview
   pagecolor="#ffffff"
   bordercolor="#666666"
   borderopacity="1"
   objecttolerance="10"
   gridtolerance="10"
   guidetolerance="10"
   inkscape:pageopacity="0"
   inkscape:pageshadow="2"
   inkscape:window-width="716"
   inkscape:window-height="480"
   id="namedview1450"
   showgrid="false"
   inkscape:zoom="0.05994412"
   inkscape:cx="1968.5"
   inkscape:cy="1968.5"
   inkscape:window-x="0"
   inkscape:window-y="0"
   inkscape:window-maximized="0"
   inkscape:current-layer="Layer_1" />
<style
   type="text/css"
   id="style1437">
	.st0{fill:none;stroke:#000000;stroke-miterlimit:10;}
	.st1{fill:none;}
	.st2{fill:#363636;}
</style>
<path
   class="st0"
   d="M4143.8,389c0,320.5-259.8,580.3-580.3,580.3S2983.3,709.5,2983.3,389s259.8-580.3,580.3-580.3  S4143.8,68.5,4143.8,389z"
   id="path1439" />
<path
   class="st0"
   d="M4143.8,389c0,320.5-259.8,580.3-580.3,580.3S2983.3,709.5,2983.3,389s259.8-580.3,580.3-580.3  S4143.8,68.5,4143.8,389z"
   id="path1441" />
<line
   class="st1"
   x1="2695.1"
   y1="1266.6"
   x2="2695.1"
   y2="1266.6"
   id="line1443" />
<path
   class="st2"
   d="M4753.7,59.7c-57.4-207.8-167.7-393.7-315.6-542.1v0l90-363.3L4143.8-1042l-247.2,241.8  c-106-29.6-217.7-45.4-333.1-45.4c-112.7,0-221.9,15.1-325.6,43.4L2983.3-1042l-356.7,196.4l62.3,363.3v0  C2541-333.9,2430.6-148.1,2373.3,59.7L2018,195.4v395.9l355.3,127c58.2,210.7,170.8,398.9,321.8,548.3l-68.5,357l356.7,196.4  l254.7-239.8c103.7,28.3,212.9,43.4,325.6,43.4c115.4,0,227.1-15.8,333.1-45.5l247.2,241.8l384.4-196.4l-96.3-357  c151-149.4,263.6-337.6,321.8-548.3l355.3-109V171.4L4753.7,59.7z M3563.5,969.3c-320.5,0-580.3-259.8-580.3-580.3  s259.8-580.3,580.3-580.3S4143.8,68.5,4143.8,389S3884,969.3,3563.5,969.3z"
   id="path1445"
   style="fill:#111111;fill-opacity:1" />
<line
   class="st1"
   x1="4431.9"
   y1="1266.6"
   x2="4431.9"
   y2="1266.6"
   id="line1447" />
</svg>