<?xml version="1.0" encoding="UTF-8" standalone="no"?>
<!-- Generator: Adobe Illustrator 19.0.0, SVG Export Plug-In . SVG Version: 6.00 Build 0)  -->

<svg
   xmlns:dc="http://purl.org/dc/elements/1.1/"
   xmlns:cc="http://creativecommons.org/ns#"
   xmlns:rdf="http://www.w3.org/1999/02/22-rdf-syntax-ns#"
   xmlns:svg="http://www.w3.org/2000/svg"
   xmlns="http://www.w3.org/2000/svg"
   xmlns:sodipodi="http://sodipodi.sourceforge.net/DTD/sodipodi-0.dtd"
   xmlns:inkscape="http://www.inkscape.org/namespaces/inkscape"
   version="1.1"
   id="Layer_1"
   x="0px"
   y="0px"
   viewBox="1663 -1572 3937 3937"
   style="enable-background:new 1663 -1572 3937 3937;"
   xml:space="preserve"
   sodipodi:docname="gear2.svg"
   inkscape:version="0.92.3 (2405546, 2018-03-11)"><metadata
   id="metadata892"><rdf:RDF><cc:Work
       rdf:about=""><dc:format>image/svg+xml</dc:format><dc:type
         rdf:resource="http://purl.org/dc/dcmitype/StillImage" /></cc:Work></rdf:RDF></metadata><defs
   id="defs890" /><sodipodi:namedview
   pagecolor="#ffffff"
   bordercolor="#666666"
   borderopacity="1"
   objecttolerance="10"
   gridtolerance="10"
   guidetolerance="10"
   inkscape:pageopacity="0"
   inkscape:pageshadow="2"
   inkscape:window-width="716"
   inkscape:window-height="480"
   id="namedview888"
   showgrid="false"
   inkscape:zoom="0.05994412"
   inkscape:cx="1968.5"
   inkscape:cy="1968.5"
   inkscape:window-x="0"
   inkscape:window-y="0"
   inkscape:window-maximized="0"
   inkscape:current-layer="Layer_1" />
<style
   type="text/css"
   id="style875">
	.st0{fill:#FFFFFF;}
	.st1{fill:none;}
	.st2{fill:#8330B1;}
</style>

<circle
   class="st1"
   cx="3632.5"
   cy="393.5"
   r="908.5"
   id="circle879" />
<line
   class="st1"
   x1="4607.8"
   y1="1117.3"
   x2="4607.8"
   y2="1117.3"
   id="line881" />
<line
   class="st1"
   x1="2671.2"
   y1="1117.3"
   x2="2671.2"
   y2="1117.3"
   id="line883" />
<path
   class="st2"
   d="M4849,392.5c0-51.8-3.3-102.9-9.6-153L5111,107.8l-67-216L4750.2-87c-38.5-89.2-87.5-172.8-145.4-249.3l166-258  l-156-147l-256.5,161c-73.6-54.5-153.7-100.9-238.9-137.7l9.3-311.3l-213-53.7l-137.5,273.9c-45.6-5.2-91.9-7.9-138.9-7.9  c-47.6,0-94.7,2.8-140.9,8.1L3360.8-1083l-219,56.7l17.7,308.3c-88,38.1-170.5,86.3-246.1,143.2l-254.6-166.5l-159,159l174.4,246  c-57.8,76.4-106.7,160-145.3,249.1l-299.2-21l-63.7,213l273.6,134.7c-6.3,50.1-9.6,101.2-9.6,153c0,46.6,2.6,92.6,7.8,137.9  L2166,668.8l51.7,204l305.9-13.2c38.7,92.3,88.4,178.7,147.6,257.7l-165.4,240.6l165,166l240.1-166  c76.6,57.9,160.2,106.9,249.5,145.4l-15.5,299.6l216,59l134.9-268.5c47.1,5.6,95.1,8.5,143.8,8.5c47.7,0,94.8-2.8,141.1-8.2  l135.3,268.2l222-59l-19.1-299.6c89.2-38.5,172.9-87.5,249.5-145.4l255.7,166l144-156l-160.1-250.6  c56.6-75.4,104.5-157.7,142.4-245.4l308.7,15.9l52-219l-270.2-134.6C4846.2,487.8,4849,440.5,4849,392.5z M3632.5,1302  c-501.8,0-908.5-406.8-908.5-908.5S3130.8-515,3632.5-515S4541-108.3,4541,393.5S4134.3,1302,3632.5,1302z"
   id="path885"
   style="fill:#220f3b;fill-opacity:1" />
</svg>