<?xml version="1.0" encoding="UTF-8" standalone="no"?>
<!-- Generator: Adobe Illustrator 12.0.0, SVG Export Plug-In  -->

<svg
   xmlns:dc="http://purl.org/dc/elements/1.1/"
   xmlns:cc="http://creativecommons.org/ns#"
   xmlns:rdf="http://www.w3.org/1999/02/22-rdf-syntax-ns#"
   xmlns:svg="http://www.w3.org/2000/svg"
   xmlns="http://www.w3.org/2000/svg"
   xmlns:xlink="http://www.w3.org/1999/xlink"
   xmlns:sodipodi="http://sodipodi.sourceforge.net/DTD/sodipodi-0.dtd"
   xmlns:inkscape="http://www.inkscape.org/namespaces/inkscape"
   version="1.1"
   width="363.55832"
   height="208.31836"
   viewBox="181 173 363.55832 208.31836"
   enable-background="new 181 173 209 364"
   xml:space="preserve"
   id="svg873"
   sodipodi:docname="Hand-Cheer(Blue).svg"
   inkscape:version="0.92.3 (2405546, 2018-03-11)"><metadata
   id="metadata877"><rdf:RDF><cc:Work
       rdf:about=""><dc:format>image/svg+xml</dc:format><dc:type
         rdf:resource="http://purl.org/dc/dcmitype/StillImage" /><dc:title></dc:title></cc:Work></rdf:RDF></metadata><sodipodi:namedview
   pagecolor="#ffffff"
   bordercolor="#666666"
   borderopacity="1"
   objecttolerance="10"
   gridtolerance="10"
   guidetolerance="10"
   inkscape:pageopacity="0"
   inkscape:pageshadow="2"
   inkscape:window-width="1360"
   inkscape:window-height="745"
   id="namedview875"
   showgrid="false"
   inkscape:zoom="1.5824176"
   inkscape:cx="78.918149"
   inkscape:cy="104.38003"
   inkscape:window-x="-8"
   inkscape:window-y="-8"
   inkscape:window-maximized="1"
   inkscape:current-layer="svg873"
   fit-margin-top="0"
   fit-margin-left="0"
   fit-margin-right="0"
   fit-margin-bottom="0" />
<defs
   id="defs847">
</defs>
<g
   id="g871"
   transform="rotate(90,363.25543,354.74457)">
	<defs
   id="defs850">
		<rect
   id="XMLID_11_"
   width="612"
   height="792"
   x="0"
   y="0" />
	</defs>
	<clipPath
   id="XMLID_14_">
		<use
   xlink:href="#XMLID_11_"
   id="use852"
   x="0"
   y="0"
   width="100%"
   height="100%" />
	</clipPath>
	<path
   clip-path="url(#XMLID_14_)"
   d="m 368,362 c 0,0 -2,-129.5 -3,-154 -1,-24.5 -15.25,-31 -15.25,-31 -44.25,-14.5 -49.97,20 -49.97,20 l -4.28,106 c -35,-5.5 -39.15,13 -39.15,13 -28.11,-2.92 -37.35,15.66 -37.35,15.66 -32.02,-0.07 -35.5,26.84 -35.5,26.84 0,0 -6.5,33 4,75.5 10.5,42.5 32,69.5 32,69.5 C 218,533.35 236,537 236,537 h 106.66 c 25.67,0 19.34,-38.5 19.34,-38.5 10,-27.5 7.5,-11 23.5,-57.5 16,-46.5 -17.5,-79 -17.5,-79 m 10.5,69 c -10.5,30 -7,25.5 -26.5,66 0,0 4.5,29.5 -11,30 -15.5,0.5 -101.5,0 -101.5,0 0,0 -15.42,3.5 -8.21,-28 0,0 -30.29,-34.5 -38.29,-92 0,0 -2,-11 0,-44 0,0 0.66,-24.84 33.08,-18.17 0,0 2.02,-26.33 34.97,-16.83 0,0 13.62,-31.04 44.95,-6 l 2.67,-118.33 c 0,0 0.66,-12.67 9.66,-17 9,-4.34 17.67,-5.34 26,-1.67 8.34,3.67 10,12.67 10.34,16.67 0.33,4 3.66,160.33 3.66,160.33 0,0 30.67,39 20.17,69"
   id="path855"
   inkscape:connector-curvature="0"
   style="fill:#262362" />
	<path
   clip-path="url(#XMLID_14_)"
   d="m 349.75,206.3 v 148.37 c -2.72,-9.95 -12.42,-7.63 -12.42,-7.63 H 314.25 V 206.3 c 0,-8.78 7.99,-15.97 17.75,-15.97 4.88,0 9.32,1.79 12.54,4.69 3.22,2.89 5.21,6.89 5.21,11.28"
   id="path857"
   inkscape:connector-curvature="0"
   style="fill:#262362" />
	<path
   clip-path="url(#XMLID_14_)"
   d="m 306.95,347.47 c -12.1,1.87 -31.3,0.41 -38.05,-0.2 l -1.54,-4.67 c -3.1,-9.43 2.08,-19.68 11.51,-22.78 1.85,-0.61 3.74,-0.9 5.6,-0.9 7.58,0 14.68,4.83 17.17,12.41 z"
   id="path859"
   inkscape:connector-curvature="0"
   style="fill:#262362" />
	<path
   clip-path="url(#XMLID_14_)"
   d="m 316.38,393.25 c -2.08,4.11 -5.729,7.44 -10.43,8.98 -9.43,3.1 -19.68,-2.08 -22.77,-11.51 0,0 14.92,5.45 33.2,2.53"
   id="path861"
   inkscape:connector-curvature="0"
   style="fill:#262362" />
	<path
   clip-path="url(#XMLID_14_)"
   d="m 270.65,411.02 -2.76,0.9 c -8.19,2.69 -17.09,-1.8 -19.78,-9.99 l -16.04,-48.81 c -2.69,-8.19 1.81,-17.09 9.99,-19.78 l 2.76,-0.9 c 5.9,-1.94 12.18,-0.15 16.23,4.07 0.45,3.1 1.46,9.14 3.37,16.64 0,0 -18.06,19.11 12.63,33.23 1.27,2.33 2.63,4.63 4.1,6.87 1.42,7.59 -2.99,15.3 -10.5,17.77"
   id="path863"
   inkscape:connector-curvature="0"
   style="fill:#262362" />
	<path
   clip-path="url(#XMLID_14_)"
   d="m 245.91,411.31 c -1.65,4.25 -5.12,7.75 -9.77,9.25 l -2.7,0.87 c -8.2,2.65 -17.07,-1.89 -19.72,-10.08 L 199.83,368.4 c -2.65,-8.2 1.89,-17.08 10.09,-19.73 l 2.7,-0.87 c 4.7,-1.52 9.62,-0.68 13.46,1.86 1.3,9.72 6.69,44.02 19.83,61.65"
   id="path865"
   inkscape:connector-curvature="0"
   style="fill:#262362" />
	<path
   clip-path="url(#XMLID_14_)"
   d="m 359.67,376.33 c -8,-14.33 -15,-24 -24.67,-23.18 -9.67,0.81 -60.67,1.52 -60.67,1.52 0,0 -16,3 -7.87,17.51 8.13,14.51 37.87,16.49 46.87,15.82 9,-0.67 9.34,5.25 9.34,5.25 l 6,18.06 c 0,4.311 -4.67,1.391 -4.67,1.391 l -5.64,-9.57 C 299.71,415.26 284,405 284,405 c -16.33,22.67 -35,9.67 -35,9.67 -32.67,41.33 -51,-28.29 -51,-28.29 1.33,61.71 29,97.29 35,105.62 6,8.33 4,12.33 3,21.33 -1.01,9 5.67,6.34 5.67,6.34 0,0 89,0.66 97,0 8,-0.67 6.66,-5 6.66,-5 0.34,-10 0.34,-19.67 0.34,-19.67 5.66,-8.67 20.33,-42.33 20.33,-42.33 17.67,-49 1.67,-62 -6.33,-76.34 m -76.5,83.84 -7.96,-0.18 -1.05,9.12 9,0.229 -1.34,7.16 -8.49,-0.18 -1,8.68 h -5.87 l 0.83,-8.82 -8.24,-0.18 -1.03,9 h -5.88 l 0.86,-9.13 -9.34,-0.2 0.91,-7.33 9.12,0.24 0.86,-9.04 -9.55,-0.21 0.91,-7.33 9.33,0.24 0.78,-8.24 h 6.71 l -0.97,8.41 7.76,0.2 0.81,-8.61 h 6.72 l -1.01,8.78 8.46,0.22 z m 44,37.66 H 291 L 291.5,485 h 9.5 l -0.33,-41 h -10.34 v -9 L 306,427.33 h 11.67 v 57 h 9.5 z"
   id="path867"
   inkscape:connector-curvature="0"
   style="fill:#262362" />
	<polygon
   clip-path="url(#XMLID_14_)"
   points="267.98,468.95 259.89,468.74 260.93,459.68 268.83,459.85 "
   id="polygon869"
   style="fill:#262362" />
</g>
<path
   style="fill:#ffffff;fill-opacity:1;stroke:none;stroke-width:23.88451576;stroke-linecap:square;stroke-miterlimit:4;stroke-dasharray:0, 262.72966318;stroke-dashoffset:370.39370728;stroke-opacity:1;paint-order:markers fill stroke"
   d="m 220.73759,300.44666 v -17.69444 h 2.11911 c 1.16551,0 3.86707,0.1827 6.00347,0.406 l 3.88437,0.40599 v 4.64956 4.64956 l 11.84896,-0.002 c 6.51692,-0.001 15.9013,-0.18769 20.85416,-0.41427 l 9.00521,-0.41193 v -4.95726 -4.95725 h 4.10277 4.10277 l 3.79653,7.57361 3.79654,7.57362 v 5.69721 5.69722 h -28.4375 -28.4375 v 4.73959 4.73958 h -6.31944 -6.31945 z"
   id="path835"
   inkscape:connector-curvature="0" /><path
   style="fill:#ffffff;fill-opacity:1;stroke:none;stroke-width:23.88451576;stroke-linecap:square;stroke-miterlimit:4;stroke-dasharray:0, 262.72966318;stroke-dashoffset:370.39370728;stroke-opacity:1;paint-order:markers fill stroke"
   d="m 261.02405,275.02582 -3.00173,-0.6256 v -3.95339 -3.95338 l -2.93195,-0.40187 c -1.61258,-0.22102 -3.74539,-0.40186 -4.73959,-0.40186 h -1.80763 v 4.31599 4.316 l -3.55528,-0.64442 -3.55528,-0.64442 0.39402,-4.23954 0.39403,-4.23954 -4.42208,-0.44409 -4.42208,-0.44409 v -2.69524 -2.69523 l 4.45447,0.31871 4.45447,0.31872 -0.18884,-4.35275 c -0.17872,-4.11919 -0.27362,-4.36167 -1.76871,-4.51917 -7.22318,-0.76093 -6.95139,-0.62644 -6.95139,-3.43964 v -2.58072 l 4.33566,0.36349 4.33565,0.36349 0.37344,-4.4543 c 0.20538,-2.44987 0.45825,-4.51271 0.56191,-4.5841 0.10366,-0.0714 1.53926,-0.009 3.19022,0.13846 l 3.00173,0.26826 v 4.59006 4.59005 l 2.93195,0.40187 c 1.61258,0.22103 3.74539,0.40187 4.73959,0.40187 h 1.80763 v -4.67945 -4.67945 l 2.68576,0.30787 c 4.25882,0.48819 4.19426,0.40907 4.39531,5.38665 l 0.18629,4.6123 2.52778,0.16844 c 5.1257,0.34155 5.37153,0.51049 5.37153,3.69145 v 2.8879 l -4.26563,-0.21418 -4.26562,-0.21417 -0.18708,3.90852 -0.18707,3.90852 4.4527,0.43876 4.4527,0.43876 v 3.08248 3.08248 l -4.42361,-0.41113 -4.42362,-0.41113 v 4.19838 c 0,2.30912 -0.21328,4.16477 -0.47395,4.12369 -0.26068,-0.0411 -1.82474,-0.35623 -3.4757,-0.70031 z m -2.4989,-18.65728 -0.18686,-4.26563 -4.36311,-0.4818 c -2.3997,-0.26499 -4.44471,-0.4002 -4.54444,-0.30046 -0.0997,0.0997 -0.26916,2.0228 -0.37649,4.27347 l -0.19513,4.09212 3.15972,0.37468 c 1.73785,0.20607 3.95475,0.41936 4.92645,0.47396 l 1.76672,0.0993 z"
   id="path837"
   inkscape:connector-curvature="0" /><path
   style="fill:#ffffff;fill-opacity:1;stroke:none;stroke-width:23.88451576;stroke-linecap:square;stroke-miterlimit:4;stroke-dasharray:0, 262.72966318;stroke-dashoffset:370.39370728;stroke-opacity:1;paint-order:markers fill stroke"
   d="m 291.83134,370.90294 c -5.90922,-1.32933 -34.57875,-11.21236 -42.65625,-14.70458 -3.99705,-1.72808 -11.93823,-5.34763 -17.64708,-8.04344 l -10.37972,-4.90147 -5.10292,0.35542 c -11.19388,0.77967 -20.34888,-1.73453 -23.23861,-6.38192 l -1.45458,-2.33931 -0.16355,-53.39931 c -0.1614,-52.69581 -0.14666,-53.42685 1.11895,-55.48987 2.64064,-4.30438 10.31113,-5.62765 22.16444,-3.82369 l 4.79345,0.72952 4.68571,-3.51932 c 21.69738,-16.29636 52.85572,-29.07588 82.73086,-33.93186 6.50154,-1.05678 10.75074,-1.28001 24.01389,-1.26156 26.91362,0.0374 31.95848,0.96212 37.48523,6.87067 3.88551,4.15393 5.58402,8.98137 5.60686,15.93568 0.01,2.9978 -0.17742,6.60666 -0.41615,8.01969 l -0.43405,2.56914 2.7314,0.73549 c 8.87316,2.3893 14.34336,8.34761 15.76433,17.17102 0.56789,3.52629 0.32642,6.90524 -1.07829,15.08871 -0.37158,2.16477 -0.2584,2.3477 2.42569,3.92069 4.23744,2.4833 9.62246,8.64078 11.16695,12.76879 2.80258,7.49056 1.1765,16.06029 -4.74662,25.01564 -1.70388,2.57614 -3.17931,4.85609 -3.27875,5.06656 -0.18415,0.38978 4.10441,0.51015 77.27687,2.16903 22.93958,0.52007 43.0685,1.2241 44.73094,1.56454 5.91037,1.21032 10.8881,4.57533 13.08599,8.84628 2.6093,5.07041 3.96452,11.22266 3.66337,16.63056 -0.54244,9.74122 -4.82614,15.67147 -13.08286,18.11166 -4.44202,1.31279 -5.87274,1.35837 -127.48246,4.06147 l -38.00864,0.84484 -6.39093,4.25461 c -20.95895,13.95293 -42.92876,20.4305 -57.88347,17.06632 z m 28.03614,-7.80024 c 3.25495,-1.10766 7.52058,-2.96565 9.47917,-4.12887 22.06268,-13.10313 26.0776,-15.73721 30.06589,-19.7255 3.61715,-3.61716 5.35174,-6.91282 5.51544,-10.47914 0.0689,-1.50083 -0.23177,-16.52096 -0.66813,-33.37808 -0.88337,-34.1264 -0.83517,-33.78678 -5.35898,-37.75869 -2.00601,-1.76128 -2.81345,-2.05382 -5.66883,-2.05382 -13.47819,0 -22.52652,17.22375 -23.54776,44.82381 -0.22266,6.01764 -0.64083,9.70568 -1.22956,10.84417 -0.77484,1.49837 -2.31377,2.19904 -11.70382,5.32875 -11.14759,3.7155 -12.28459,3.80132 -11.86021,0.89524 0.1476,-1.01076 1.54783,-2.26808 4.6351,-4.16203 2.43298,-1.49257 4.70798,-2.81984 5.05555,-2.9495 0.35276,-0.13159 -0.007,-1.38314 -0.81387,-2.8329 -5.06822,-9.10423 -5.80216,-20.08117 -1.94441,-29.08094 l 1.21777,-2.84096 -4.06269,-3.94453 c -8.87178,-8.61373 -11.11246,-17.39412 -7.04728,-27.61559 l 1.44575,-3.63519 -4.67097,-4.67097 c -11.92749,-11.92749 -10.65258,-22.58804 3.94726,-33.00627 4.71589,-3.3652 14.85277,-8.24866 22.98747,-11.07428 3.46872,-1.20488 5.4921,-2.18685 4.79231,-2.32576 -2.06022,-0.40897 -19.24325,1.17533 -27.22634,2.51032 -27.72251,4.63593 -50.14097,13.71177 -74.07585,29.98871 -9.71107,6.60402 -10.97706,6.9718 -20.32863,5.90569 -6.21155,-0.70814 -7.42205,-0.69359 -8.84722,0.10629 l -1.65107,0.92668 -0.1719,51.16332 c -0.15356,45.70648 -0.0637,51.44989 0.84266,53.85027 0.67991,1.8007 1.46614,2.77843 2.38369,2.9643 0.75304,0.15254 5.91916,0.41482 11.48027,0.58283 l 10.11111,0.30548 6.64385,3.49131 c 10.6031,5.57187 32.5464,15.44415 40.21592,18.09311 6.1554,2.126 17.51214,5.006 23.28606,5.9052 1.04271,0.16238 6.16146,0.2269 11.375,0.14336 8.78332,-0.14073 9.91361,-0.29972 15.39725,-2.16582 z m 196.13019,-22.24041 c 3.77901,-1.04953 7.53405,-4.35383 9.64655,-8.48861 1.68268,-3.2935 1.9008,-4.34867 1.88854,-9.13605 -0.0111,-4.32673 -0.29025,-5.93434 -1.39167,-8.01387 -2.15815,-4.07471 -4.35809,-6.32924 -7.89657,-8.09255 l -3.26898,-1.62899 h -72.27112 -72.27113 l 0.13461,14.46109 c 0.129,13.85745 0.0774,14.55369 -1.23628,16.67926 -0.75399,1.21998 -2.36172,2.68833 -3.57274,3.263 -1.21101,0.57465 -2.20184,1.17368 -2.20184,1.33116 0,0.6365 150.12836,0.26773 152.44063,-0.37444 z m -191.51777,-41.346 c -0.24152,-8.26479 0.90076,-18.76017 2.49941,-22.96494 0.75646,-1.98962 0.50121,-2.20222 -1.65824,-1.3812 -3.31179,1.25914 -6.53419,4.42384 -8.49021,8.33818 -3.82648,7.65747 -2.21228,16.33205 4.06778,21.85998 1.66311,1.46393 3.20524,2.66169 3.42694,2.66169 0.22171,0 0.29115,-3.83117 0.15432,-8.51371 z m 54.74467,-3.57006 c 9.72595,-3.15455 11.76948,-4.16232 14.7926,-7.29498 8.71452,-9.03027 6.20682,-23.57507 -5.01088,-29.06338 -4.31514,-2.1112 -10.12833,-2.35626 -15.13364,-0.63796 l -3.2712,1.12298 -0.50018,4.23029 c -0.62868,5.31705 -0.69753,31.65409 -0.0866,33.14175 0.24976,0.60824 0.61734,1.1059 0.81684,1.1059 0.19949,0 3.97639,-1.17207 8.39309,-2.6046 z m -51.5209,-24.76431 c 3.10013,-1.76598 4.06067,-2.78855 6.44423,-6.8604 6.9804,-11.92462 15.59986,-15.90507 24.98347,-11.53732 1.9105,0.88927 3.90497,2.00721 4.43216,2.4843 0.81658,0.73901 2.26729,0.60525 9.79719,-0.90325 l 8.83868,-1.7707 1.88842,-3.02802 c 1.53629,-2.46341 1.92971,-3.86436 2.10983,-7.51319 0.39815,-8.06515 -3.29613,-14.87659 -9.68115,-17.84995 -5.71243,-2.66014 -7.19512,-2.37382 -35.29065,6.81494 -13.95934,4.56546 -26.39533,8.81049 -27.63553,9.4334 -2.98978,1.50167 -6.55534,5.52578 -7.59064,8.56684 -2.4499,7.19624 0.91822,17.57033 6.93834,21.37066 5.42444,3.42431 9.73928,3.65595 14.76565,0.79269 z m -12.65328,-38.38404 c 10.81345,-5.53909 23.18551,-9.4298 40.1006,-12.61065 5.83982,-1.09817 11.27609,-2.12565 12.08061,-2.28328 1.92122,-0.37644 3.87654,-4.66809 3.89489,-8.54871 0.0193,-4.08402 -2.10958,-10.52419 -4.39001,-13.28038 -2.73576,-3.30649 -7.63072,-5.58659 -11.99276,-5.58629 -4.64196,3.2e-4 -48.89262,14.16993 -52.71224,16.87911 -1.3671,0.96966 -3.34811,3.29753 -4.40224,5.17307 -4.19204,7.45857 -1.46339,18.04593 6.0545,23.49186 l 2.55897,1.85371 1.95751,-1.29111 c 1.07663,-0.71011 4.15921,-2.41891 6.85017,-3.79733 z"
   id="path839"
   inkscape:connector-curvature="0" /></svg>