<?xml version="1.0" encoding="UTF-8" standalone="no"?>
<!-- Generator: Adobe Illustrator 19.0.0, SVG Export Plug-In . SVG Version: 6.00 Build 0)  -->

<svg
   xmlns:dc="http://purl.org/dc/elements/1.1/"
   xmlns:cc="http://creativecommons.org/ns#"
   xmlns:rdf="http://www.w3.org/1999/02/22-rdf-syntax-ns#"
   xmlns:svg="http://www.w3.org/2000/svg"
   xmlns="http://www.w3.org/2000/svg"
   xmlns:sodipodi="http://sodipodi.sourceforge.net/DTD/sodipodi-0.dtd"
   xmlns:inkscape="http://www.inkscape.org/namespaces/inkscape"
   version="1.1"
   id="Layer_1"
   x="0px"
   y="0px"
   viewBox="1663 -1572 3228 3228"
   xml:space="preserve"
   sodipodi:docname="gear3.svg"
   width="3228"
   height="3228"
   inkscape:version="0.92.3 (2405546, 2018-03-11)"><metadata
   id="metadata2612"><rdf:RDF><cc:Work
       rdf:about=""><dc:format>image/svg+xml</dc:format><dc:type
         rdf:resource="http://purl.org/dc/dcmitype/StillImage" /></cc:Work></rdf:RDF></metadata><defs
   id="defs2610" /><sodipodi:namedview
   pagecolor="#ffffff"
   bordercolor="#666666"
   borderopacity="1"
   objecttolerance="10"
   gridtolerance="10"
   guidetolerance="10"
   inkscape:pageopacity="0"
   inkscape:pageshadow="2"
   inkscape:window-width="716"
   inkscape:window-height="480"
   id="namedview2608"
   showgrid="false"
   inkscape:zoom="0.05994412"
   inkscape:cx="1613.5"
   inkscape:cy="1613.5"
   inkscape:window-x="0"
   inkscape:window-y="0"
   inkscape:window-maximized="0"
   inkscape:current-layer="Layer_1" />
<style
   type="text/css"
   id="style2583">
	.st0{fill:none;}
	.st1{fill:#B16CB7;}
</style>
<path
   class="st0"
   d="M 4249,42.5 C 4249,579.6 3813.6,1015 3276.5,1015 2739.4,1015 2304,579.6 2304,42.5 c 0,-537.1 435.4,-972.5 972.5,-972.5 537.1,0 972.5,435.4 972.5,972.5 z"
   id="path2585"
   inkscape:connector-curvature="0"
   style="fill:none" />
<path
   class="st0"
   d="M 4249,42.5 C 4249,579.6 3813.6,1015 3276.5,1015 2739.4,1015 2304,579.6 2304,42.5 c 0,-537.1 435.4,-972.5 972.5,-972.5 537.1,0 972.5,435.4 972.5,972.5 z"
   id="path2587"
   inkscape:connector-curvature="0"
   style="fill:none" />
<line
   class="st0"
   x1="4484.6001"
   y1="13"
   x2="4484.6001"
   y2="13"
   id="line2589"
   style="fill:none" />
<line
   class="st0"
   x1="2284.3"
   y1="732.69995"
   x2="2284.3"
   y2="732.69995"
   id="line2591"
   style="fill:none" />
<line
   class="st0"
   x1="2376.6001"
   y1="849.09998"
   x2="2376.6001"
   y2="849.09998"
   id="line2593"
   style="fill:none" />
<line
   class="st0"
   x1="2253"
   y1="-600.40002"
   x2="2253"
   y2="-600.40002"
   id="line2595"
   style="fill:none" />
<line
   class="st0"
   x1="2326.5"
   y1="-704.59998"
   x2="2326.5"
   y2="-704.59998"
   id="line2597"
   style="fill:none" />
<path
   class="st0"
   d="M 3515.5,1227.4"
   id="path2599"
   inkscape:connector-curvature="0"
   style="fill:none" />
<path
   class="st1"
   d="m 4485,42.5 c 0,-9.9 -0.1,-19.7 -0.4,-29.5 l 406.4,-80 -8,-70.1 h -411.3 c -6.2,-41.5 -14.5,-82.3 -24.7,-122.2 l 376,-175.7 -28,-66 -396.9,92.7 c -15.5,-38.5 -32.9,-76 -52.1,-112.3 l 327,-252.4 -42,-66 -368.5,182.6 c -25,-35.3 -51.9,-69.1 -80.5,-101.5 l 265,-320.9 -54,-44.2 -314.9,261.1 c -32.7,-29 -67,-56.3 -102.7,-81.6 l 179.6,-369.5 -62,-38.8 -246,328.7 c -38.4,-20.6 -78.1,-39.3 -118.9,-55.7 l 94.9,-404.2 -68,-18 -171.2,374.4 c -40.3,-10.6 -81.4,-19.1 -123.3,-25.5 l -5.5,-408.9 -72,-11 -75.9,406.4 c -10.2,-0.3 -20.3,-0.4 -30.6,-0.4 -32.2,0 -64.2,1.3 -95.8,3.7 L 3081,-1561 c 0,0 -68,9 -72,10 -4,1 17.2,411 16.6,411.1 -43,9.1 -85.1,20.4 -126.3,33.9 l -193.8,-367 -56.5,24 113,397.7 c -38.9,18.3 -76.6,38.6 -113,60.8 l -267,-311.5 -58,39.8 198.8,359.9 c -33.1,26.4 -64.7,54.5 -94.8,84.2 l -330,-243 -52,56 280.5,300.4 c -26.3,33.4 -50.8,68.2 -73.5,104.2 l -377,-157.5 -37,63 339.2,232.6 c -16.8,36.4 -31.8,73.9 -45,112.2 L 1723,-413 l -18,68 387,146.6 c -8.7,43 -15.1,86.9 -19.1,131.4 L 1663,-39 v 72 l 405.7,50 c 1.4,43.3 5.1,86.1 11,128.2 L 1689,333 l 16,72 406.1,-41.5 c 10.8,39.1 23.4,77.4 37.9,114.9 l -354,213.4 36,69.2 385.1,-138.4 c 20.8,38 43.6,74.7 68.3,110.1 L 1989,1015 l 44,52.9 343.6,-218.8 c 28.7,32 59.1,62.4 91,91.2 L 2247,1277 l 57,54 287.1,-293 c 34.9,24.1 71.2,46.4 108.6,66.8 L 2563,1491 l 66,28 207.5,-350.6 c 40,15.7 81.1,29.2 123.1,40.6 l -42.5,400 72,20 117.7,-389.8 c 44,6.2 88.8,10 134.3,11.3 l 48,405.5 h 70 l 34,-410.6 c 41.5,-4 82.3,-10 122.4,-18.1 1.8,-0.3 3.5,-0.7 5.3,-1.1 l 140.9,383.2 72,-19.5 -66.3,-403.6 c 41.7,-14.2 82.3,-30.7 121.8,-49.2 l 219.8,341.9 68,-30 -160.7,-381.1 c 38.5,-24.1 75.6,-50.3 111.1,-78.4 l 297.6,287.5 54,-56 -243,-329 v 0 c 29.9,-30.3 58.3,-62.2 84.9,-95.5 l 359,200.4 39,-56 -310.1,-270 c 22.7,-37.1 43.4,-75.6 62,-115.2 L 4765,671 4789,603 4426.9,413.6 c 13,-40.2 23.9,-81.4 32.6,-123.3 l 407.5,18.7 10,-72 -396.1,-94 c 2.7,-33.2 4.1,-66.7 4.1,-100.5 z M 3276.5,1015 C 2739.4,1015 2304,579.6 2304,42.5 c 0,-537.1 435.4,-972.5 972.5,-972.5 537.1,0 972.5,435.4 972.5,972.5 0,537.1 -435.4,972.5 -972.5,972.5 z"
   id="path2601"
   inkscape:connector-curvature="0"
   style="fill:#463958;fill-opacity:1" />
<line
   class="st0"
   x1="3667.3"
   y1="1186.4"
   x2="3664.6001"
   y2="1170"
   id="line2603"
   style="fill:none" />
<line
   class="st0"
   x1="3520.7"
   y1="1226.3"
   x2="3515.5"
   y2="1212"
   id="line2605"
   style="fill:none" />
</svg>