<?xml version="1.0" encoding="UTF-8" standalone="no"?>
<!-- Generator: Adobe Illustrator 19.0.0, SVG Export Plug-In . SVG Version: 6.00 Build 0)  -->

<svg
   xmlns:dc="http://purl.org/dc/elements/1.1/"
   xmlns:cc="http://creativecommons.org/ns#"
   xmlns:rdf="http://www.w3.org/1999/02/22-rdf-syntax-ns#"
   xmlns:svg="http://www.w3.org/2000/svg"
   xmlns="http://www.w3.org/2000/svg"
   xmlns:sodipodi="http://sodipodi.sourceforge.net/DTD/sodipodi-0.dtd"
   xmlns:inkscape="http://www.inkscape.org/namespaces/inkscape"
   version="1.1"
   id="Layer_1"
   x="0px"
   y="0px"
   viewBox="1663 -1572 3905.3 3840.5"
   xml:space="preserve"
   sodipodi:docname="gear1.svg"
   inkscape:version="0.92.3 (2405546, 2018-03-11)"
   width="3905.3"
   height="3840.5"><metadata
   id="metadata854"><rdf:RDF><cc:Work
       rdf:about=""><dc:format>image/svg+xml</dc:format><dc:type
         rdf:resource="http://purl.org/dc/dcmitype/StillImage" /></cc:Work></rdf:RDF></metadata><defs
   id="defs852" /><sodipodi:namedview
   pagecolor="#ffffff"
   bordercolor="#666666"
   borderopacity="1"
   objecttolerance="10"
   gridtolerance="10"
   guidetolerance="10"
   inkscape:pageopacity="0"
   inkscape:pageshadow="2"
   inkscape:window-width="1360"
   inkscape:window-height="745"
   id="namedview850"
   showgrid="false"
   inkscape:zoom="0.14630429"
   inkscape:cx="1955.5"
   inkscape:cy="1956.5"
   inkscape:window-x="-8"
   inkscape:window-y="-8"
   inkscape:window-maximized="1"
   inkscape:current-layer="Layer_1" />
<style
   type="text/css"
   id="style815">
	.st0{fill:none;}
	.st1{fill:#7DA7D9;}
</style>
<ellipse
   class="st0"
   cx="3607"
   cy="344.5"
   rx="1076"
   ry="1056.5"
   id="ellipse817"
   style="fill:none" />
<ellipse
   class="st0"
   cx="3607"
   cy="344.5"
   rx="1076"
   ry="1056.5"
   id="ellipse819"
   style="fill:none" />
<line
   class="st0"
   x1="3016.6001"
   y1="-1085"
   x2="3014.8999"
   y2="-1087.5"
   id="line821"
   style="fill:none" />
<line
   class="st0"
   x1="2790.6001"
   y1="-968"
   x2="2787.5"
   y2="-976"
   id="line823"
   style="fill:none" />
<line
   class="st0"
   x1="3496.2"
   y1="-1195.1"
   x2="3496"
   y2="-1195.8"
   id="line825"
   style="fill:none" />
<line
   class="st0"
   x1="3244.8999"
   y1="-1154.8"
   x2="3244.7"
   y2="-1158.8"
   id="line827"
   style="fill:none" />
<line
   class="st0"
   x1="3985"
   y1="-1154.9"
   x2="3984.8999"
   y2="-1152.5"
   id="line829"
   style="fill:none" />
<line
   class="st0"
   x1="3731.8"
   y1="-1194.7"
   x2="3731.3"
   y2="-1193.1"
   id="line831"
   style="fill:none" />
<line
   class="st0"
   x1="4442.2002"
   y1="-966"
   x2="4439.2998"
   y2="-958.40002"
   id="line833"
   style="fill:none" />
<line
   class="st0"
   x1="4209.2998"
   y1="-1083.1"
   x2="4207.7002"
   y2="-1080.7"
   id="line835"
   style="fill:none" />
<line
   class="st0"
   x1="5071.2002"
   y1="-235.39999"
   x2="5070.6001"
   y2="-235"
   id="line837"
   style="fill:none" />
<line
   class="st0"
   x1="4951.7002"
   y1="-465.5"
   x2="4947.2998"
   y2="-464"
   id="line839"
   style="fill:none" />
<line
   class="st0"
   x1="5182.6001"
   y1="229.89999"
   x2="5180.6001"
   y2="230.5"
   id="line841"
   style="fill:none" />
<line
   class="st0"
   x1="5140.7998"
   y1="-25.900002"
   x2="5136.3999"
   y2="-25.900002"
   id="line843"
   style="fill:none" />
<line
   class="st0"
   x1="4443.2002"
   y1="1658.3"
   x2="4443.2002"
   y2="1658.3"
   id="line845"
   style="fill:none" />
<path
   class="st1"
   d="m 5547.3,720.8 21,-152.5 -385.2,-112 c 2.6,-36.2 3.9,-72.8 3.9,-109.7 0,-39.2 -1.5,-78.1 -4.4,-116.6 l 384.4,-112.9 -23.7,-148.7 -402.5,5.7 c -18.2,-72 -41.5,-141.9 -69.6,-209.5 l 329.9,-229.7 -69.7,-133.5 -379.7,133.1 c -41.9,-66.2 -88.7,-129.2 -140.1,-188.3 l 246.4,-318.6 -106.5,-106.5 -326.1,243.4 c -57.7,-47.6 -118.9,-91.3 -183.2,-130.6 l 140,-366.1 -147.6,-80.1 -225.4,329 c -72.2,-29.2 -147.1,-53.3 -224.3,-71.8 l 18.4,-389 -162.1,-27.9 -109.5,377 c -41.3,-3.2 -83.1,-4.8 -125.3,-4.8 -37.1,0 -74,1.3 -110.5,3.7 l -107,-372.9 -161.3,24 17,385.9 c -79.1,18.1 -155.9,42 -229.9,71.3 v 0 l -217,-318.7 -145.7,73.3 135.4,356.9 c -69.1,41 -134.7,87.1 -196.3,137.6 l -301.5,-244.8 -118.6,112 237.1,310 c -51.6,58.6 -98.8,121.1 -141,186.9 l -361.9,-125.8 -76.5,135 318.2,217.8 c -30.5,71.6 -55.6,145.9 -74.9,222.5 l -384.3,-6.8 -24.7,150 367.6,109.3 c -3.1,39.3 -4.6,79 -4.6,119.1 0,39.8 1.5,79.1 4.6,118.1 l -367.6,108 24.7,150 382.7,-10.6 c 19.4,78.3 44.9,154.3 76,227.5 l -317.8,216.5 72,133.5 363.1,-127.1 c 42.8,67.2 90.7,131 143.2,190.8 l -239.4,300.8 109.5,109.5 313,-233 v 0 c 60.7,49.9 125.2,95.4 193.1,136 L 2652,2032 l 139.5,70.5 228.8,-319.8 c 69.6,27.2 141.7,49.7 215.8,67.1 l -6.6,389.2 156,29.5 115.4,-379.4 c 34.9,2.3 70,3.4 105.5,3.4 40.3,0 80.3,-1.5 119.8,-4.4 l 119.8,380.4 153,-25 -7.8,-397.1 c 74.7,-18.3 147.2,-41.7 217.3,-70 l 230,329.1 139.5,-70.5 -134.8,-376.7 c 64.7,-39.6 126.2,-83.6 184.2,-131.6 l 324.1,241.3 111,-109.7 -244,-319.5 c 48.1,-56.2 92.2,-115.7 131.8,-178.2 l 386.7,131.9 70.5,-131.9 -337.1,-230.3 c 28.8,-69.1 52.7,-140.7 71.2,-214.4 z M 3607,1401 C 3012.7,1401 2531,928 2531,344.5 2531,-239 3012.7,-712 3607,-712 4201.3,-712 4683,-239 4683,344.5 4683,928 4201.3,1401 3607,1401 Z"
   id="path847"
   style="fill:#3e3e3e;fill-opacity:1"
   inkscape:connector-curvature="0" />
</svg>